<?xml version="1.0" encoding="UTF-8"?>
<svg version="1.1" xmlns="http://www.w3.org/2000/svg" width="4057" height="682">
    <path
        d="M0 0 C14.89756656 11.75274872 29.05833931 25.38669085 40.5625 40.5 C41.00480957 41.07121582 41.44711914 41.64243164 41.90283203 42.23095703 C66.91727348 74.54937869 86.26820535 110.81907653 106.15625 146.40625 C109.68046219 152.71230562 113.20884054 159.0159428 116.75 165.3125 C117.29100342 166.27969971 117.83200684 167.24689941 118.3894043 168.2434082 C118.89383057 169.13890381 119.39825684 170.03439941 119.91796875 170.95703125 C120.57768677 172.1322937 120.57768677 172.1322937 121.25073242 173.33129883 C122.56436282 175.50307974 124.00511286 177.49764511 125.5625 179.5 C132.84056649 167.16512817 140.01143082 154.78613 146.9375 142.25 C154.67491099 128.25311045 162.55252416 114.34264963 170.5625 100.5 C171.08376465 99.59733398 171.6050293 98.69466797 172.14208984 97.76464844 C178.32397474 87.10878678 184.93302034 76.75788599 191.75 66.5 C192.12227722 65.93836151 192.49455444 65.37672302 192.87811279 64.79806519 C203.28413827 49.13378901 214.68457273 34.22334845 227.5625 20.5 C228.06378418 19.9647168 228.56506836 19.42943359 229.08154297 18.87792969 C246.44841681 0.48825341 268.56545757 -16.72988656 294.7890625 -17.8359375 C320.0615088 -18.42884482 341.31125616 -12.93404606 360.28198242 4.69970703 C372.0581361 16.14712776 384.472335 34.87357238 385.81089699 51.60481775 C385.81013755 52.72043608 385.80937811 53.83605441 385.80859566 54.98547935 C385.81257775 56.27931522 385.81655985 57.57315108 385.82066262 58.90619409 C385.81495719 60.33487353 385.80906601 61.76355223 385.80300903 63.19223022 C385.80388139 64.71533582 385.80563294 66.23844112 385.80818737 67.76154482 C385.81265889 71.94380637 385.80465988 76.12596546 385.79463124 80.30821395 C385.78599625 84.81939804 385.78891694 89.33057633 385.79043579 93.84176636 C385.79148461 101.65668482 385.78520831 109.47156989 385.77396011 117.28647995 C385.75770768 128.58553094 385.75249737 139.88456579 385.74998413 151.1836272 C385.74560663 169.51549369 385.73229601 187.84734239 385.71337891 206.17919922 C385.69502155 223.98714102 385.68086433 241.79507799 385.67236328 259.60302734 C385.67157511 261.24948439 385.67157511 261.24948439 385.67077102 262.9292032 C385.66816095 268.43571758 385.66563353 273.942232 385.66314721 279.44874644 C385.64241298 325.13251343 385.60554228 370.81624751 385.5625 416.5 C350.2525 416.5 314.9425 416.5 278.5625 416.5 C278.50191406 402.14628906 278.44132812 387.79257812 278.37890625 373.00390625 C278.33830157 363.78450313 278.29750344 354.56510151 278.25585938 345.34570312 C278.19012877 330.78622269 278.12510074 316.22674201 278.06518555 301.66723633 C278.0072495 287.63360659 277.94579805 273.59999632 277.87890625 259.56640625 C277.87349335 258.43080529 277.86808045 257.29520432 277.86250353 256.12519121 C277.69395579 221.24379382 277.38222459 186.37293449 276.5625 151.5 C276.13247681 152.27495316 275.70245361 153.04990631 275.25939941 153.8483429 C266.61863181 169.41919239 257.96159041 184.98044445 249.24023438 200.50634766 C247.60667517 203.42117638 245.98221267 206.34091036 244.359375 209.26171875 C190.61664524 305.6659471 190.61664524 305.6659471 141.796875 320.65625 C122.88983597 325.15395973 105.99536653 321.2976166 89.5625 311.5 C80.8528348 306.01580672 72.98022256 299.63058491 65.5625 292.5 C64.68078125 291.66984375 63.7990625 290.8396875 62.890625 289.984375 C55.68388083 283.02192724 49.51530646 275.54194338 43.5625 267.5 C43.08699707 266.85820801 42.61149414 266.21641602 42.12158203 265.55517578 C18.85169037 233.8885307 0.20144938 198.57902688 -18.35180664 164.02539062 C-18.8596167 163.08115234 -19.36742676 162.13691406 -19.890625 161.1640625 C-20.33567383 160.33342285 -20.78072266 159.5027832 -21.23925781 158.64697266 C-22.2236476 156.883174 -23.3170593 155.18066106 -24.4375 153.5 C-25.3677626 182.89561739 -25.63895894 212.27755617 -25.74082303 241.68648028 C-25.76312297 247.86025931 -25.7902903 254.03401716 -25.81687927 260.20777893 C-25.86622555 271.82998885 -25.9113725 283.45221088 -25.95490164 295.07444388 C-25.98983822 304.3627068 -26.02677883 313.65095986 -26.06518555 322.93920898 C-26.06793505 323.60467776 -26.07068456 324.27014654 -26.07351738 324.95578104 C-26.09746844 330.74898604 -26.12155359 336.54219047 -26.14565182 342.33539486 C-26.24831483 367.05691083 -26.34220657 391.77845198 -26.4375 416.5 C-62.4075 416.5 -98.3775 416.5 -135.4375 416.5 C-135.45975634 381.69006147 -135.47813682 346.88013012 -135.48856533 312.07018656 C-135.48981528 307.91324611 -135.49110968 303.75630567 -135.49243164 299.59936523 C-135.49269395 298.77216992 -135.49295626 297.9449746 -135.49322652 297.09271275 C-135.49751829 283.88888063 -135.50536789 270.6850531 -135.5146528 257.48122365 C-135.52417388 243.82241153 -135.52959345 230.16360173 -135.53158849 216.50478643 C-135.53280982 208.87943343 -135.53564599 201.25408987 -135.54323006 193.62874031 C-135.57435002 161.17576902 -135.46803251 128.72644931 -135.08369629 96.27547948 C-135.05681276 93.90943944 -135.03308848 91.54338834 -135.01033032 89.17730534 C-134.55474753 42.96235839 -134.55474753 42.96235839 -128.8125 32.5 C-128.45913574 31.8076123 -128.10577148 31.11522461 -127.74169922 30.40185547 C-124.55220651 24.32696802 -120.82430072 18.77875651 -116.4375 13.5 C-115.68855469 12.58863281 -114.93960938 11.67726562 -114.16796875 10.73828125 C-84.20821826 -23.96469306 -36.1687941 -26.51140107 0 0 Z "
        fill="#3E68BB" transform="translate(135.4375,129.5)" />
    <path
        d="M0 0 C5.64024995 5.24357679 10.3571095 10.92201781 14.73828125 17.24609375 C15.25346817 17.98317062 15.76865509 18.7202475 16.29945374 19.47966003 C21.85240756 27.46514906 27.19630531 35.58581122 32.51171875 43.73046875 C33.52223474 45.27407388 34.53297957 46.81752923 35.54394531 48.36083984 C38.39170888 52.71038938 41.23390592 57.06355123 44.07421875 61.41796875 C44.77885254 62.49771973 45.48348633 63.5774707 46.20947266 64.68994141 C49.8415724 70.25916101 53.46201822 75.83582611 57.07421875 81.41796875 C58.01951815 82.87761265 58.96483067 84.33724806 59.91015625 85.796875 C61.74587086 88.63211592 63.58040828 91.46811367 65.4140625 94.3046875 C67.15406964 96.99621149 68.89626059 99.68629801 70.640625 102.375 C71.5144293 103.72258727 72.38812528 105.07024479 73.26171875 106.41796875 C73.70781494 107.10608643 74.15391113 107.7942041 74.61352539 108.50317383 C77.323363 112.6905058 80.014365 116.88927449 82.69140625 121.09765625 C89.82715134 132.30763819 97.05044528 143.44307757 104.44921875 154.48046875 C109.49804147 162.01228671 114.49519431 169.56028743 119.24633789 177.28442383 C123.17937644 183.65287295 127.28311106 189.90856836 131.38671875 196.16796875 C131.75362823 196.72771393 132.12053772 197.28745911 132.49856567 197.86416626 C134.32879172 200.65586152 136.15965186 203.44713993 137.99072266 206.23828125 C141.02883552 210.87483877 144.05359094 215.5200068 147.07421875 220.16796875 C147.55286377 220.90370117 148.03150879 221.63943359 148.5246582 222.39746094 C153.06694647 229.38799198 157.56592873 236.40507316 162.07421875 243.41796875 C162.73421875 156.62796875 163.39421875 69.83796875 164.07421875 -19.58203125 C200.37421875 -19.58203125 236.67421875 -19.58203125 274.07421875 -19.58203125 C274.09656068 13.34172098 274.11490565 46.26546542 274.12528408 79.18922303 C274.12653374 83.13884401 274.12782816 87.08846498 274.12915039 91.03808594 C274.12954386 92.21678507 274.12954386 92.21678507 274.12994527 93.41929631 C274.13369021 104.36201541 274.13982618 115.30473077 274.14795952 126.24744746 C274.17535921 163.27401549 274.1707671 200.30031363 274.09830819 237.32683238 C274.07933477 247.04451261 274.07112749 256.76215804 274.06951904 266.4798584 C274.06705571 276.6454055 274.04284071 286.81060818 273.98790997 296.97601306 C273.96111238 301.97923218 273.94291873 306.98201412 273.95082283 311.9853096 C273.95761382 316.51842083 273.93641882 321.05053035 273.89326596 325.58343363 C273.88254979 327.19143625 273.88145177 328.79954388 273.89187503 330.40754843 C274.01308288 351.40234126 266.08037637 370.75352289 252.07421875 386.41796875 C251.33558594 387.25070312 250.59695313 388.0834375 249.8359375 388.94140625 C234.78275179 404.9554336 213.78491081 414.04199829 191.83447266 414.76928711 C168.36950907 415.02953196 147.38096156 407.53139115 130.05859375 391.5546875 C123.27229129 384.70056878 117.86462198 376.84844782 112.82421875 368.66796875 C107.16094217 359.62626824 101.32437923 350.71784217 95.38671875 341.85546875 C88.62991364 331.76178263 81.91149866 321.6450379 75.26171875 311.48046875 C74.8676181 310.87807373 74.47351746 310.27567871 74.06747437 309.6550293 C71.76298969 306.13143729 69.46063322 302.60646006 67.15948486 299.08068848 C66.10644567 297.46734312 65.05298533 295.85427267 63.99951172 294.24121094 C52.09883928 276.0182151 40.23373078 257.77216286 28.41699219 239.49462891 C26.13697946 235.96848559 23.85553337 232.44326986 21.57421875 228.91796875 C18.84696997 224.70356839 16.11997014 220.48900861 13.39453125 216.2734375 C7.9142247 207.79807969 2.42125249 199.33107557 -3.08276367 190.87109375 C-5.67589888 186.88414356 -8.26569999 182.89516214 -10.84375 178.8984375 C-11.31167969 178.17333984 -11.77960937 177.44824219 -12.26171875 176.70117188 C-13.10776438 175.3893121 -13.9529552 174.07690021 -14.796875 172.76367188 C-19.42347385 165.59094152 -24.18915338 158.52291056 -28.92578125 151.41796875 C-29.25578125 238.20796875 -29.58578125 324.99796875 -29.92578125 414.41796875 C-65.89578125 414.41796875 -101.86578125 414.41796875 -138.92578125 414.41796875 C-139.10234517 368.00474714 -139.2499809 321.59184382 -139.33430389 275.17838214 C-139.34430882 269.69134922 -139.35466346 264.20431701 -139.36523438 258.71728516 C-139.36733286 257.62497574 -139.36943134 256.53266633 -139.37159342 255.40725663 C-139.40634668 237.75087314 -139.46939147 220.0946993 -139.54300362 202.43843994 C-139.61797576 184.30391744 -139.66228521 166.16950429 -139.67848921 148.03483319 C-139.6894332 136.85638745 -139.7239216 125.67853445 -139.78911299 114.50027129 C-139.83159862 106.82134354 -139.84413765 99.1427195 -139.83379227 91.46368292 C-139.82869854 87.04166759 -139.83616805 82.62068351 -139.87942505 78.19885445 C-140.04740762 60.12479413 -140.16820614 43.58916506 -130.92578125 27.41796875 C-130.34490674 26.38775958 -130.34490674 26.38775958 -129.7522974 25.33673811 C-125.09897968 17.2101005 -119.55388009 10.05767547 -112.92578125 3.41796875 C-112.24128906 2.721875 -111.55679688 2.02578125 -110.8515625 1.30859375 C-80.86335417 -27.29383785 -30.46960091 -26.88972791 0 0 Z "
        fill="#3E68BB" transform="translate(2965.92578125,134.58203125)" />
    <path
        d="M0 0 C1.20720703 -0.01160156 2.41441406 -0.02320312 3.65820312 -0.03515625 C15.14375486 0.00171551 26.46098525 1.50569008 36.6875 7 C37.35217285 7.34627441 38.0168457 7.69254883 38.70166016 8.04931641 C60.27926778 19.63373943 76.35886053 38.88394923 84.01953125 62.14453125 C85.69573071 69.03021392 85.77044477 75.89322525 85.87890625 82.9453125 C85.89973267 84.1271814 85.92055908 85.30905029 85.9420166 86.5267334 C85.99742664 89.82231112 86.04787825 93.11787925 86.09492874 96.41358185 C86.12507867 98.50545821 86.15698532 100.59730213 86.18917847 102.68914795 C86.499421 123.19857155 86.60459818 143.70711201 86.625 164.21875 C86.62603729 165.260811 86.62707458 166.30287201 86.62814331 167.37651062 C86.64702989 191.04267389 86.59439502 214.70889485 86.5625 238.375 C50.2625 238.375 13.9625 238.375 -23.4375 238.375 C-23.875 206 -23.875 206 -24.00561523 195.77197266 C-24.04372385 193.11099707 -24.08219175 190.4500266 -24.12109375 187.7890625 C-24.13330711 186.74823013 -24.13330711 186.74823013 -24.14576721 185.68637085 C-24.17006722 183.64713781 -24.20098738 181.60798694 -24.23217773 179.56884766 C-24.24772202 178.41857086 -24.2632663 177.26829407 -24.27928162 176.0831604 C-24.25703729 173.4073535 -24.25703729 173.4073535 -25.4375 171.375 C-29.38846557 177.20317288 -33.3348507 183.03442844 -37.27832031 188.86767578 C-38.61552627 190.84459644 -39.95371379 192.82085358 -41.29296875 194.79638672 C-48.00905639 204.70462679 -54.6852155 214.61618895 -60.97149658 224.80395508 C-65.17200792 231.6038396 -69.60695609 238.24053474 -74.0625 244.875 C-74.88433754 246.10271536 -75.70595256 247.33057971 -76.52734375 248.55859375 C-78.49485808 251.49910148 -80.46529019 254.4376388 -82.4375 257.375 C-79.01906537 258.51447821 -76.38114832 258.51416563 -72.7747345 258.53321838 C-71.75654633 258.54061287 -71.75654633 258.54061287 -70.7177887 258.54815674 C-68.43140927 258.56355804 -66.14505762 258.57190047 -63.85864258 258.58032227 C-62.19623156 258.59003607 -60.53382301 258.60018145 -58.87141705 258.61072445 C-54.41294829 258.6378047 -49.95446966 258.65896509 -45.49596405 258.67891693 C-41.31479293 258.69851952 -37.13366014 258.72343727 -32.95251465 258.7479248 C-20.71837191 258.81646859 -8.48418247 258.87645973 3.75 258.9375 C31.078125 259.081875 58.40625 259.22625 86.5625 259.375 C86.5625 317.125 86.5625 374.875 86.5625 434.375 C50.2625 434.375 13.9625 434.375 -23.4375 434.375 C-23.4375 412.595 -23.4375 390.815 -23.4375 368.375 C-66.6675 368.375 -109.8975 368.375 -154.4375 368.375 C-155.0975 370.025 -155.7575 371.675 -156.4375 373.375 C-157.65682397 375.38652052 -158.92539384 377.36855212 -160.2265625 379.328125 C-160.79023529 380.18200302 -160.79023529 380.18200302 -161.36529541 381.0531311 C-162.17356173 382.2767387 -162.98380517 383.49904217 -163.7958374 384.72015381 C-165.95099812 387.96115082 -168.09213508 391.21139164 -170.234375 394.4609375 C-170.6699472 395.12090729 -171.10551941 395.78087708 -171.55429077 396.46084595 C-176.54475454 404.0335866 -181.41608083 411.68126506 -186.27197266 419.34082031 C-187.185354 420.77699707 -187.185354 420.77699707 -188.1171875 422.2421875 C-188.64038574 423.06831543 -189.16358398 423.89444336 -189.70263672 424.74560547 C-190.2751416 425.61330566 -190.84764648 426.48100586 -191.4375 427.375 C-191.74142072 427.95564524 -192.04534143 428.53629047 -192.35847187 429.13453102 C-194.00942924 431.97125148 -195.26062983 434.00811311 -198.48490143 435.01327324 C-201.07097136 435.24555794 -203.57530518 435.25235686 -206.17114258 435.18554688 C-207.14769302 435.18817535 -208.12424347 435.19080383 -209.13038635 435.19351196 C-212.36534123 435.19373385 -215.59749875 435.14404998 -218.83203125 435.09375 C-221.09908395 435.08321508 -223.36615224 435.07565435 -225.63322449 435.07092285 C-231.6201291 435.04984968 -237.60586789 434.98597172 -243.59234619 434.91394043 C-248.41007489 434.86264951 -253.22771482 434.84021121 -258.04565907 434.81981659 C-280.20001673 434.72560952 -302.30572711 434.43208925 -324.4375 433.375 C-323.71862286 429.32442712 -322.62268311 426.69051884 -320.3671875 423.2265625 C-319.72563721 422.23293701 -319.08408691 421.23931152 -318.4230957 420.21557617 C-317.72659912 419.15443604 -317.03010254 418.0932959 -316.3125 417 C-315.59473389 415.89309814 -314.87696777 414.78619629 -314.13745117 413.64575195 C-312.27392135 410.77227443 -310.40120145 407.90491678 -308.5256958 405.03924561 C-306.8444583 402.4680244 -305.1705702 399.89203386 -303.49609375 397.31640625 C-300.41033849 392.57400359 -297.31587687 387.83735157 -294.21923828 383.10205078 C-285.58458102 369.88622156 -277.00808733 356.6324312 -268.4375 343.375 C-262.06257479 333.51393341 -255.67592272 323.66065524 -249.27392578 313.81713867 C-245.82146676 308.50758998 -242.37599202 303.19360315 -238.9375 297.875 C-234.39444887 290.8478829 -229.83565885 283.83108931 -225.2734375 276.81640625 C-221.82115615 271.50709204 -218.37583272 266.19335675 -214.9375 260.875 C-210.94680733 254.70226192 -206.94501303 248.53683064 -202.9375 242.375 C-197.53968287 234.07500258 -192.15573369 225.76615036 -186.78027344 217.45166016 C-184.50026071 213.92551684 -182.21879794 210.40031191 -179.9375 206.875 C-179.02082659 205.4583377 -178.10415992 204.04167103 -177.1875 202.625 C-163.4375 181.375 -163.4375 181.375 -149.6875 160.125 C-149.23391113 159.4239917 -148.78032227 158.7229834 -148.31298828 158.00073242 C-147.394721 156.58160689 -146.47642665 155.16249886 -145.55810547 153.7434082 C-143.29070799 150.23950403 -141.02375499 146.73531405 -138.7578125 143.23046875 C-132.22699757 133.1302666 -125.67976382 123.04082709 -119.11914062 112.95996094 C-117.51045625 110.48714587 -115.90358723 108.01315923 -114.296875 105.5390625 C-110.80812052 100.17186759 -107.3052422 94.81397267 -103.79974365 89.45770264 C-102.24249422 87.0768602 -100.6869505 84.69490689 -99.13134766 82.31298828 C-95.98622986 77.49878711 -92.83450482 72.68895326 -89.6796875 67.88110352 C-88.41141022 65.94643509 -87.14491675 64.01059589 -85.88037109 62.07348633 C-79.76582712 52.70993075 -73.6178014 43.39874124 -66.921875 34.4375 C-66.22225395 33.49959373 -66.22225395 33.49959373 -65.50849915 32.54273987 C-49.00643743 10.83889493 -27.38281383 -0.26231541 0 0 Z "
        fill="#3E68BB" transform="translate(1669.4375,111.625)" />
    <path
        d="M0 0 C44.941875 -0.9075 89.88375 -1.815 136.1875 -2.75 C157.40518677 -3.35086426 157.40518677 -3.35086426 179.05151367 -3.96386719 C196.44006348 -4.16259766 196.44006348 -4.16259766 204.60273743 -4.19952393 C210.26318944 -4.24026797 215.90396834 -4.40087711 221.55891418 -4.64532471 C269.27806091 -6.64463124 269.27806091 -6.64463124 281.37131119 4.33833313 C290.81082932 14.37805615 297.0036724 26.53415697 302.63793373 38.98912811 C305.45436724 45.16142718 309.06698306 50.42568119 313.1875 55.8125 C314.3750214 57.4849646 315.55677411 59.16155328 316.73046875 60.84375 C317.36903809 61.75769531 318.00760742 62.67164063 318.66552734 63.61328125 C323.58566239 70.71931593 328.37873986 77.91324458 333.1835022 85.09750366 C334.38952026 86.90005724 335.59716959 88.70152053 336.80648804 90.50186157 C338.50075814 93.02543647 340.18877866 95.55307345 341.875 98.08203125 C342.39286575 98.85168213 342.91073151 99.62133301 343.44429016 100.41430664 C343.91384628 101.12167969 344.3834024 101.82905273 344.8671875 102.55786133 C345.48762939 103.48638664 345.48762939 103.48638664 346.12060547 104.43367004 C347 106 347 106 347 108 C268.46 108 189.92 108 109 108 C109 179.61 109 251.22 109 325 C177.97253813 324.96047874 177.97253813 324.96047874 246.94506836 324.90991211 C260.35266113 324.90539551 260.35266113 324.90539551 266.6499176 324.90455627 C271.00299093 324.90363301 275.35605179 324.8999194 279.7091217 324.89442444 C326.78166129 324.83751328 326.78166129 324.83751328 347 326 C341.7975621 335.50263091 341.7975621 335.50263091 339.08764648 339.49291992 C338.57123093 340.25741959 338.05481537 341.02191925 337.52275085 341.80958557 C336.97770401 342.60847702 336.43265717 343.40736847 335.87109375 344.23046875 C335.28862381 345.09095322 334.70615387 345.95143768 334.10603333 346.83799744 C332.21977831 349.6233876 330.32859462 352.40539395 328.4375 355.1875 C325.80438177 359.07313074 323.17379259 362.96047183 320.54296875 366.84765625 C319.89216339 367.80847107 319.24135803 368.76928589 318.5708313 369.75921631 C313.09005194 377.85441976 307.6592369 385.98188846 302.25 394.125 C295.98299273 403.55196142 289.67517764 412.94980865 283.3125 422.3125 C282.58643555 423.38193848 281.86037109 424.45137695 281.11230469 425.55322266 C280.12278809 427.00607666 280.12278809 427.00607666 279.11328125 428.48828125 C278.53360596 429.33946533 277.95393066 430.19064941 277.35668945 431.06762695 C276 433 276 433 275 434 C273.52999954 434.09672647 272.05535444 434.12371776 270.58217525 434.12304783 C269.14183391 434.12603414 269.14183391 434.12603414 267.67239475 434.12908077 C266.60559955 434.12616811 265.53880434 434.12325544 264.43968201 434.12025452 C263.31857529 434.12111053 262.19746857 434.12196655 261.04238892 434.12284851 C257.24235486 434.12451471 253.44236407 434.11896231 249.64233398 434.11352539 C246.88882706 434.11266434 244.13532095 434.11330761 241.381814 434.11389065 C234.73154024 434.1144236 228.08127992 434.10979371 221.43100962 434.10338932 C213.74310826 434.09620641 206.05521503 434.09539551 198.36730957 434.09460449 C178.05737091 434.08934811 157.74743525 434.07538709 137.4375 434.0625 C92.083125 434.041875 46.72875 434.02125 0 434 C0 290.78 0 147.56 0 0 Z "
        fill="#3E68BB" transform="translate(3279,115)" />
    <path
        d="M0 0 C45.395625 -0.185625 90.79125 -0.37125 137.5625 -0.5625 C151.9079126 -0.64443604 166.2533252 -0.72637207 181.03344727 -0.81079102 C198.5213623 -0.85144043 198.5213623 -0.85144043 206.70249939 -0.85899353 C212.42919566 -0.86739484 218.15510392 -0.90044096 223.88157654 -0.95018005 C230.4851679 -1.00745289 237.08800218 -1.03352807 243.6918438 -1.02100455 C247.07109306 -1.01557901 250.44729365 -1.02920711 253.82646286 -1.07293618 C257.4457583 -1.1176044 261.06080126 -1.10696017 264.68019104 -1.08229065 C265.73340011 -1.10850463 266.78660917 -1.13471861 267.87173367 -1.16172695 C272.14189604 -1.08330587 274.88401637 -0.99832845 278.14486492 1.91873753 C279.95071824 4.20509241 281.49302271 6.50867025 283 9 C284.01533446 10.49440484 285.03471654 11.98607657 286.06005859 13.47363281 C287.09328389 15.04766479 288.12258827 16.62427588 289.1484375 18.203125 C289.71472366 19.06716446 290.28100983 19.93120392 290.86445618 20.82142639 C292.07623536 22.6706099 293.2864485 24.52082044 294.49520874 26.37197876 C297.71029057 31.29437307 300.93859038 36.20807083 304.16796875 41.12109375 C304.82237442 42.11686935 305.47678009 43.11264496 306.15101624 44.13859558 C314.04443959 56.13204093 322.0932809 68.01939759 330.15661621 79.8989563 C331.98518366 82.5939794 333.81134143 85.29062808 335.63665771 87.987854 C336.57533899 89.37324621 337.51557483 90.75758596 338.45709229 92.14105225 C339.87812573 94.23042481 341.29317827 96.3237329 342.70703125 98.41796875 C343.14053391 99.05253494 343.57403656 99.68710114 344.02067566 100.34089661 C347 104.77210508 347 104.77210508 347 107 C268.46 107 189.92 107 109 107 C109 178.94 109 250.88 109 325 C187.54 325 266.08 325 347 325 C345.60736123 328.48159692 344.55776679 330.91630902 342.57104492 333.92431641 C342.08311966 334.66765732 341.5951944 335.41099823 341.09248352 336.17686462 C340.56051865 336.97701492 340.02855377 337.77716522 339.48046875 338.6015625 C338.91809006 339.45476578 338.35571136 340.30796906 337.77629089 341.18702698 C335.91806102 344.00282256 334.05297502 346.81400011 332.1875 349.625 C330.88801141 351.5901368 329.58869749 353.55538912 328.28955078 355.52075195 C317.89337983 371.22781323 307.3829377 386.85771605 296.80932617 402.44580078 C296.23378494 403.29544907 295.65824371 404.14509735 295.06526184 405.02049255 C294.02078036 406.56198647 292.97492467 408.10255112 291.92704773 409.64173889 C291.43984756 410.36090988 290.9526474 411.08008087 290.45068359 411.82104492 C289.93448708 412.54102 289.41829056 413.26099508 288.88645172 414.00278759 C287.36740808 416.41625856 286.29798981 418.55937074 285.19138813 421.15665817 C282.51740222 426.88626146 279.6343937 432.61044395 273.446805 434.9761759 C265.52849007 436.56046835 257.44499043 436.1273427 249.4152832 435.92993164 C246.65047054 435.9152411 243.88589329 435.92624553 241.12107372 435.93614101 C234.47996658 435.94514879 227.84279413 435.86698166 221.20269607 435.75761842 C213.51573212 435.63482355 205.83110404 435.62168914 198.14294434 435.60827637 C177.8655093 435.51915444 157.58894486 435.2818128 137.3125 435.0625 C91.999375 434.711875 46.68625 434.36125 0 434 C0 290.78 0 147.56 0 0 Z "
        fill="#3E68BB" transform="translate(567,112)" />
    <path
        d="M0 0 C71.61 0 143.22 0 217 0 C217 143.22 217 286.44 217 434 C181.36 434 145.72 434 109 434 C109 326.75 109 219.5 109 109 C101.41 109 93.82 109 86 109 C74.20971942 108.89697786 74.20971942 108.89697786 70.21179199 108.84667969 C69.33744003 108.83584351 68.46308807 108.82500732 67.5622406 108.81384277 C66.69736526 108.80308716 65.83248993 108.79233154 64.94140625 108.78125 C63.25712223 108.76126999 61.57283673 108.74141374 59.8885498 108.72167969 C53.77984877 108.64927037 47.67117583 108.57450586 41.5625 108.5 C27.846875 108.335 14.13125 108.17 0 108 C0 72.36 0 36.72 0 0 Z "
        fill="#3E68BB" transform="translate(3666,115)" />
    <path
        d="M0 0 C2.50822311 0.36698347 3.71184767 0.6789511 5.43066406 2.59399414 C6.09146973 3.64768188 6.09146973 3.64768188 6.765625 4.72265625 C7.27931641 5.53879395 7.79300781 6.35493164 8.32226562 7.19580078 C11.53714767 12.56921975 14.66592149 17.98817458 17.75 23.4375 C18.45706911 24.68252537 19.16426427 25.92747916 19.87158203 27.17236328 C21.27075609 29.63708722 22.66730164 32.10327228 24.06152344 34.57080078 C25.2655366 36.7007213 26.47154399 38.8295174 27.68066406 40.95654297 C29.08451359 43.42617768 30.48137142 45.89958711 31.875 48.375 C32.27299805 49.07423584 32.67099609 49.77347168 33.08105469 50.49389648 C35.17318165 54.23973358 36.78892591 57.88234809 38 62 C37.0234375 63.46484375 37.0234375 63.46484375 35 65 C32.10670706 65.38007616 29.51855228 65.55516836 26.625 65.5625 C25.86960937 65.59923828 25.11421875 65.63597656 24.3359375 65.67382812 C18.8435436 65.71703752 18.8435436 65.71703752 16.38183594 63.62451172 C15.0234375 61.96484375 15.0234375 61.96484375 13 59 C12.67 59 12.34 59 12 59 C11.85304688 60.1653125 11.70609375 61.330625 11.5546875 62.53125 C8.10741129 88.3071714 1.21169545 112.06928026 -11 135 C-11.31163086 135.59522461 -11.62326172 136.19044922 -11.94433594 136.80371094 C-19.35257012 150.85975737 -28.99803359 163.5593587 -40 175 C-40.49161621 175.52271484 -40.98323242 176.04542969 -41.48974609 176.58398438 C-61.78538719 198.10018533 -86.94268437 213.59746764 -115.046875 222.73828125 C-116.49006104 223.21328064 -116.49006104 223.21328064 -117.96240234 223.69787598 C-120.30706932 224.46899471 -122.6529118 225.23628942 -125 226 C-104.79146726 226.02380494 -84.58293751 226.04120455 -64.37439346 226.05181217 C-54.98233813 226.05687755 -45.5902918 226.0637506 -36.19824219 226.07543945 C-25.30403712 226.08873254 -14.4098385 226.09687189 -3.515625 226.09765625 C-2.62173128 226.09772061 -1.72783756 226.09778497 -0.80685616 226.09785128 C35.13528872 226.09632493 71.06450356 225.67417888 107 225 C107.41209717 224.23856689 107.82419434 223.47713379 108.2487793 222.69262695 C108.78929932 221.69706787 109.32981934 220.70150879 109.88671875 219.67578125 C110.6904895 218.19331909 110.6904895 218.19331909 111.51049805 216.6809082 C115.87897144 208.81822891 122.36952958 203.99627345 130.875 201.125 C140.46467087 198.63109179 150.48320841 199.21034402 159.15625 204.25390625 C167.16619686 209.90708028 173.91807402 217.21864362 176 227 C177.35996055 239.45688153 176.1382926 249.46550899 168.75 259.8125 C163.93501287 265.64822315 158.30461362 269.07949883 151 271 C147.5380903 271.33048649 144.10090628 271.37010436 140.625 271.375 C139.7175 271.39949219 138.81 271.42398437 137.875 271.44921875 C128.7748442 271.4885566 122.56173652 268.19816956 115.8984375 262.140625 C112.48824197 258.29538394 108 252.32412382 108 247 C35.07 247 -37.86 247 -113 247 C-112.96038109 284.47254131 -112.96038109 284.47254131 -112.90991211 321.94506836 C-112.90539551 329.17687988 -112.90539551 329.17687988 -112.90455627 332.55763245 C-112.90301622 334.92925707 -112.89949006 337.30088089 -112.89442444 339.67250061 C-112.88715093 343.25555796 -112.88609245 346.83856728 -112.88647461 350.42163086 C-112.88107745 352.01822367 -112.88107745 352.01822367 -112.87557125 353.64707088 C-112.87694875 354.60565282 -112.87832624 355.56423475 -112.87974548 356.55186462 C-112.87882369 357.39161803 -112.8779019 358.23137144 -112.87695217 359.09657192 C-113 361 -113 361 -114 362 C-116.94150922 362.24396944 -119.86033197 362.42371168 -122.80755615 362.55540466 C-124.15868771 362.61863612 -124.15868771 362.61863612 -125.53711486 362.68314499 C-135.05228982 363.09594048 -144.55671085 363.13367618 -154.07910156 363.11352539 C-155.99335733 363.11324234 -157.9076132 363.11340355 -159.8218689 363.1139679 C-164.94863003 363.11425127 -170.07536708 363.1084299 -175.20212269 363.10139394 C-180.5858987 363.09508286 -185.96967545 363.09455053 -191.35345459 363.09336853 C-201.51717639 363.09027784 -211.68088724 363.08209538 -221.84460425 363.07201904 C-233.42888486 363.0607871 -245.01316603 363.05532972 -256.59745073 363.05032361 C-280.39830652 363.03991053 -304.19915264 363.02235553 -328 363 C-328.1390979 363.76675552 -328.2781958 364.53351105 -328.42150879 365.32350159 C-329.49755844 370.30204774 -332.21354191 374.65814527 -334.5625 379.14379883 C-335.47840879 380.89618994 -336.38001293 382.65603402 -337.28125 384.41601562 C-340.50960348 390.62572572 -343.92432874 396.5841058 -347.74414062 402.44360352 C-348.15577454 403.07931526 -348.56740845 403.71502701 -348.99151611 404.37000275 C-349.99218836 405.91473377 -350.99578268 407.45757125 -352 409 C-351.37643836 409.00173625 -350.75287672 409.0034725 -350.11041927 409.00526136 C-313.05795262 409.10854898 -276.00550315 409.21671536 -238.95306909 409.33111694 C-234.49263862 409.34488461 -230.03220802 409.35861199 -225.57177734 409.37231445 C-224.68387898 409.37504276 -223.79598061 409.37777106 -222.88117623 409.38058204 C-208.55140767 409.42451826 -194.22163165 409.46519925 -179.89185011 409.50465261 C-165.16088126 409.54528393 -150.42992608 409.58947055 -135.69897747 409.63687855 C-126.62747686 409.66596331 -117.55597695 409.69235684 -108.48445839 409.71517897 C-102.24271569 409.73114909 -96.00098959 409.75060835 -89.75926548 409.77266841 C-86.17157134 409.78524977 -82.58388934 409.79643069 -78.99617958 409.80341911 C-65.71548842 409.83027196 -52.44859071 409.93034776 -39.17675781 410.45033264 C-38.15603558 410.48878341 -37.13531334 410.52723418 -36.08366013 410.56685013 C-35.16073795 410.60775758 -34.23781578 410.64866504 -33.28692627 410.69081211 C-32.47873066 410.726163 -31.67053505 410.76151389 -30.83784866 410.79793602 C-29 411 -29 411 -28 412 C-27.91348389 413.41570123 -27.89295096 414.835595 -27.90234375 416.25390625 C-27.90556641 417.10791016 -27.90878906 417.96191406 -27.91210938 418.84179688 C-27.92048828 419.73962891 -27.92886719 420.63746094 -27.9375 421.5625 C-27.94201172 422.46419922 -27.94652344 423.36589844 -27.95117188 424.29492188 C-27.96299775 426.53001314 -27.9794778 428.76497437 -28 431 C-14.15240523 431.10309112 -0.30565525 431.14825971 13.54232979 431.12697029 C19.97267197 431.11877223 26.40187591 431.12907582 32.83203125 431.18164062 C39.03764664 431.23168958 45.24154719 431.23316635 51.44726181 431.20095444 C53.81476404 431.19720297 56.18236077 431.21095968 58.54965591 431.24249649 C61.86724723 431.28370282 65.17904922 431.2626678 68.49658203 431.22705078 C69.96501808 431.26695381 69.96501808 431.26695381 71.46311951 431.30766296 C74.30194436 431.23842103 76.3694978 431.08089019 79 430 C80.99982663 427.63061841 82.31601328 425.32735374 83.64172173 422.52888298 C86.86558306 416.52660185 92.81249422 413.13469035 99.125 411.0625 C107.67343877 408.94511747 115.47299345 409.94791851 123.20703125 414.21875 C129.94056251 418.85368548 135.19831578 425.63490785 136.75 433.78125 C137.88291845 443.83590125 137.17945592 452.65502288 131.4921875 461.2890625 C126.77236823 467.15041945 120.48835401 471.58100609 113 473 C104.45241545 473.87731806 98.18466357 472.78977572 91 468 C86.04371379 463.96581355 82.33333348 458.42747382 79 453 C79 452.34 79 451.68 79 451 C37.09 451 -4.82 451 -48 451 C-48.33 444.4 -48.66 437.8 -49 431 C-51.78928452 431.00222061 -54.57856903 431.00444122 -57.45237732 431.00672913 C-83.44855175 431.02692582 -109.44472581 431.04169912 -135.44090637 431.05106533 C-138.89655804 431.05231501 -142.35220969 431.05360943 -145.80786133 431.05493164 C-146.49538988 431.05519395 -147.18291844 431.05545626 -147.89128119 431.05572652 C-158.13821683 431.05973454 -168.38514746 431.06671755 -178.63208008 431.07543945 C-191.88885057 431.08667177 -205.14561822 431.09311131 -218.40239334 431.09568405 C-223.62746972 431.09670419 -228.85254242 431.09917981 -234.07761765 431.10277176 C-259.92967836 431.11848879 -285.77334811 431.07195125 -311.62158203 430.59716797 C-313.58003157 430.56288899 -315.53848344 430.52874338 -317.49693775 430.49473858 C-325.5313995 430.35249815 -333.56458418 430.19905861 -341.59729052 429.97741556 C-344.72278102 429.89546489 -347.84844837 429.83299992 -350.97447276 429.77539754 C-352.39310772 429.74448194 -353.81158064 429.70453062 -355.22967458 429.65462565 C-363.23188669 429.14745977 -363.23188669 429.14745977 -370.21841431 432.3679657 C-370.80633759 433.23653702 -371.39426086 434.10510834 -372 435 C-372.78157471 435.78681152 -373.56314941 436.57362305 -374.3684082 437.38427734 C-375.17109131 438.1933252 -375.97377441 439.00237305 -376.80078125 439.8359375 C-378.63794865 441.68236349 -380.47519045 443.52871546 -382.3125 445.375 C-383.22451172 446.29539062 -384.13652344 447.21578125 -385.07617188 448.1640625 C-402.76221892 465.9135004 -422.82870443 480.37173247 -445 492 C-445.76489746 492.4021875 -446.52979492 492.804375 -447.31787109 493.21875 C-503.09809808 522.11925214 -568.83637545 526.75415342 -628.65600586 508.43139648 C-666.36120854 496.39830016 -698.53400626 475.20782827 -727 448 C-727.74765625 447.29359375 -728.4953125 446.5871875 -729.265625 445.859375 C-733.77457198 441.4924421 -737.74295815 436.78865979 -741.6640625 431.890625 C-743.19099992 430.00110378 -744.74750119 428.13499862 -746.3359375 426.296875 C-773.41548512 394.92315964 -773.41548512 394.92315964 -774.16796875 382.1484375 C-774.11253906 381.43945312 -774.05710937 380.73046875 -774 380 C-769.65299008 377.56033291 -765.95152663 377.59784236 -761.0625 377.5625 C-760.26392578 377.52962891 -759.46535156 377.49675781 -758.64257812 377.46289062 C-754.49694709 377.4251094 -752.58473567 377.55778347 -749.1953125 380.12109375 C-746.87649615 383.16196145 -744.80719943 386.23662682 -742.8125 389.5 C-738.30586527 396.70055017 -733.33003694 403.39204828 -728 410 C-727.37834961 410.77827148 -727.37834961 410.77827148 -726.74414062 411.57226562 C-715.58992387 425.45883315 -703.06488227 438.18578386 -688.70019531 448.74853516 C-687.00363496 449.99732441 -685.32604025 451.26887103 -683.6484375 452.54296875 C-674.61318867 459.30341782 -664.99831349 464.79482803 -655 470 C-653.99791504 470.52956299 -653.99791504 470.52956299 -652.97558594 471.06982422 C-603.57612688 496.8815976 -543.73787547 500.82271442 -490.81835938 484.30029297 C-459.9561027 474.15826158 -432.07359424 458.45600408 -408.34375 436.19140625 C-406.25855736 434.24175114 -404.12332798 432.3970342 -401.9375 430.5625 C-391.48168378 421.39778659 -383.18165841 410.16180197 -375 399 C-374.56187988 398.40799805 -374.12375977 397.81599609 -373.67236328 397.20605469 C-346.83086383 360.5159289 -330.786999 311.4313058 -330 266 C-330.53109375 267.01320313 -331.0621875 268.02640625 -331.609375 269.0703125 C-332.32274694 270.42196459 -333.03629817 271.77352207 -333.75 273.125 C-334.09804687 273.79015625 -334.44609375 274.4553125 -334.8046875 275.140625 C-340.753125 286.3765625 -340.753125 286.3765625 -344 288 C-347.11877202 288.26342328 -350.24632632 288.23148714 -353.375 288.25 C-354.67050781 288.2809375 -354.67050781 288.2809375 -355.9921875 288.3125 C-362.39574552 288.35202814 -362.39574552 288.35202814 -365.6015625 286.484375 C-366.06304688 285.99453125 -366.52453125 285.5046875 -367 285 C-365.69277362 280.78856474 -364.09154459 276.98087767 -362.05859375 273.0703125 C-361.47988525 271.95398438 -360.90117676 270.83765625 -360.30493164 269.6875 C-359.68280173 268.49981801 -359.06031683 267.31232192 -358.4375 266.125 C-357.7948105 264.89324482 -357.15215121 263.66147387 -356.50952148 262.4296875 C-352.62544234 255.00401979 -348.65256358 247.63913649 -344.48046875 240.37109375 C-342.39195853 236.72311499 -340.37530449 233.03833458 -338.36328125 229.34765625 C-337.36552145 227.5250121 -336.36705942 225.70275438 -335.36837769 223.88061523 C-334.40385487 222.11531121 -333.44704439 220.34580016 -332.49047852 218.57617188 C-328.82463144 211.90233816 -324.91002289 205.8270003 -320 200 C-316.91633108 200.29620649 -315.44100709 200.47050583 -313.41699219 202.90063477 C-312.96485352 203.73908936 -312.51271484 204.57754395 -312.046875 205.44140625 C-311.51884277 206.40127441 -310.99081055 207.36114258 -310.44677734 208.35009766 C-309.60687256 209.94023682 -309.60687256 209.94023682 -308.75 211.5625 C-308.15010254 212.6664209 -307.55020508 213.7703418 -306.93212891 214.90771484 C-305.28130201 217.94914135 -303.6537725 221.00246985 -302.03161621 224.05926514 C-300.98666347 226.02508943 -299.93615559 227.98784252 -298.88378906 229.94970703 C-294.90711037 237.36403074 -290.96025331 244.79332142 -287.04335022 252.23939514 C-284.80653147 256.48674162 -282.53897148 260.71590772 -280.25390625 264.9375 C-279.14835438 266.99995545 -278.04288024 269.06245256 -276.9375 271.125 C-276.4307373 272.04812988 -275.92397461 272.97125977 -275.40185547 273.92236328 C-273.00019735 278.4398694 -271.317357 281.72895909 -272 287 C-274.94131891 287.98043964 -276.82501665 288.11621202 -279.88671875 288.09765625 C-280.82451172 288.09443359 -281.76230469 288.09121094 -282.72851562 288.08789062 C-283.70498047 288.07951172 -284.68144531 288.07113281 -285.6875 288.0625 C-286.67556641 288.05798828 -287.66363281 288.05347656 -288.68164062 288.04882812 C-291.12111958 288.0370432 -293.56056741 288.01910783 -296 288 C-298.97 282.06 -301.94 276.12 -305 270 C-305.56267578 274.21716797 -305.56267578 274.21716797 -306.13671875 278.51953125 C-306.51792928 281.31362981 -306.90319267 284.10714253 -307.28881836 286.90063477 C-307.54987027 288.80728884 -307.8068633 290.7145041 -308.05932617 292.62231445 C-310.26667612 309.26740064 -314.14338977 324.95233667 -319 341 C-308.45840065 341.15083006 -297.91672729 341.29591572 -287.375 341.4375 C-286.55461369 341.44852123 -285.73422737 341.45954247 -284.88898087 341.47089767 C-233.92766209 342.15271761 -182.96390556 342.55573183 -132 343 C-132.33 305.05 -132.66 267.1 -133 228 C-139.93 228.99 -139.93 228.99 -147 230 C-150.0145524 230.1745161 -152.93415983 230.30408404 -155.94140625 230.30078125 C-156.70839844 230.30642593 -157.47539062 230.31207062 -158.265625 230.31788635 C-160.69813492 230.32969719 -163.12999365 230.3237584 -165.5625 230.3125 C-166.40038055 230.31034485 -167.23826111 230.3081897 -168.10153198 230.30596924 C-195.52557423 230.19286962 -220.28905916 225.17539539 -245 213 C-245.66225586 212.67773438 -246.32451172 212.35546875 -247.00683594 212.0234375 C-270.57800736 200.43221677 -290.86205369 182.59269191 -307 162 C-307.7425 161.06285156 -308.485 160.12570312 -309.25 159.16015625 C-313.50850195 153.652198 -317.41269808 147.98618646 -321.0625 142.0625 C-321.45695312 141.43569336 -321.85140625 140.80888672 -322.2578125 140.16308594 C-324.33223612 136.70757204 -325.80606855 134.05939027 -325 130 C-321.40772276 127.6051485 -318.7176193 127.63296763 -314.5625 127.625 C-313.24378906 127.59664063 -311.92507813 127.56828125 -310.56640625 127.5390625 C-307 128 -307 128 -304.78125 129.62109375 C-302.65503946 132.46070388 -300.77286508 135.40684819 -298.9375 138.4375 C-275.68057663 175.49082131 -238.58217655 198.0274008 -196.640625 207.78125 C-194.0954174 208.28146421 -191.57379576 208.68137898 -189 209 C-188.13632813 209.10957031 -187.27265625 209.21914063 -186.3828125 209.33203125 C-145.71884965 213.55612711 -105.01353721 203.41087377 -72.953125 177.46484375 C-68.51480207 173.76037051 -64.19993798 169.9729143 -60 166 C-59.11699219 165.18144531 -58.23398438 164.36289062 -57.32421875 163.51953125 C-29.61666907 136.98769089 -10.50394835 95.35068303 -9 57 C-9.23589844 57.5775 -9.47179688 58.155 -9.71484375 58.75 C-11.23846152 61.55384612 -12.40134881 63.10066736 -15 65 C-17.90513701 65.65179356 -20.71786607 65.7148613 -23.6875 65.6875 C-24.44861084 65.68169922 -25.20972168 65.67589844 -25.99389648 65.66992188 C-29.18252378 65.53154682 -31.43824701 65.42919233 -34.01953125 63.45703125 C-34.34308594 62.97621094 -34.66664063 62.49539062 -35 62 C-33.76395077 58.06861694 -32.34097154 54.4506099 -30.453125 50.7890625 C-29.69044312 49.30962158 -29.69044312 49.30962158 -28.91235352 47.80029297 C-28.36377686 46.75244629 -27.8152002 45.70459961 -27.25 44.625 C-26.68015381 43.53461426 -26.11030762 42.44422852 -25.52319336 41.32080078 C-21.35465374 33.41743586 -17.03312988 25.61133232 -12.5625 17.875 C-11.9962793 16.88709473 -11.43005859 15.89918945 -10.84667969 14.88134766 C-7.64886945 9.42054427 -4.28217937 4.66324812 0 0 Z M132 228 C129.81169227 231.81189089 129 234.22760155 129 238.625 C130.40967052 243.38263802 132.96401616 245.50694518 136.875 248.375 C140.2065488 249.35486729 142.65712743 248.82105642 146 248 C149.37593285 245.82439883 151.81143182 243.8898595 153 240 C153.32948092 235.84854045 153.43166602 233.11725323 151.9375 229.25 C148.78324287 225.58699172 145.22784195 223.48903848 140.4375 222.4375 C136.78421814 223.28056504 134.41921479 225.24805653 132 228 Z M102.125 434.375 C101.42375 435.24125 100.7225 436.1075 100 437 C99.67 437.33 99.34 437.66 99 438 C98.38807731 443.26253509 99.75490977 445.8959153 103 450 C105.88861709 451.44430855 107.79647701 451.37688506 111 451 C114.47621856 448.45077306 115.78253065 446.66448969 117.125 442.5625 C117.27995351 438.85766644 117.27995351 438.85766644 115 435.625 C110.46487657 431.656767 107.00710426 430.34195735 102.125 434.375 Z "
        fill="#3E68BB" transform="translate(2650,146)" />
    <path
        d="M0 0 C1.76837723 0.04314331 1.76837723 0.04314331 3.57247925 0.0871582 C5.44625999 0.08540588 5.44625999 0.08540588 7.3578949 0.08361816 C10.7763683 0.08823255 14.19095968 0.12828993 17.60874581 0.18420982 C21.18273704 0.23427932 24.75678212 0.23892411 28.33106995 0.24841309 C35.09585067 0.2732616 41.859595 0.33888586 48.62391967 0.419209 C56.32628161 0.50868203 64.02869352 0.55262725 71.73144591 0.59277248 C87.57318126 0.67635534 103.41388305 0.81703386 119.25485229 0.99536133 C119.25485229 4.9374665 119.1379319 5.68510269 117.20016479 8.79614258 C116.75584106 9.51745361 116.31151733 10.23876465 115.85372925 10.98193359 C115.36734985 11.74948975 114.88097046 12.5170459 114.37985229 13.30786133 C113.87735962 14.11473389 113.37486694 14.92160645 112.85714722 15.75292969 C109.45784163 21.17951587 105.95118673 26.52842832 102.36740112 31.83447266 C98.33290634 37.8237217 94.44979003 43.90676146 90.56735229 49.99536133 C83.43133651 61.18175337 76.20178575 72.30417571 68.94186401 83.41040039 C65.12307745 89.26182038 61.33449411 95.13279955 57.54342651 101.00219727 C56.26290445 102.98290628 54.97997727 104.96203537 53.69625854 106.94067383 C46.90749389 117.40822361 40.17658318 127.91235067 33.45797729 138.42504883 C30.64193314 142.83054088 27.81854309 147.23119405 24.98922729 151.62817383 C17.90274131 162.65040913 10.8752118 173.68558051 4.25485229 184.99536133 C9.13371591 193.8228772 14.61080342 202.22460058 20.14083862 210.65234375 C24.97848159 218.02716665 29.75878663 225.43629357 34.50485229 232.87036133 C40.72018924 242.601467 46.96954878 252.30933719 53.25485229 261.99536133 C59.58101718 271.74435526 65.87156692 281.51511926 72.12985229 291.30786133 C78.6264583 301.47193092 85.17855571 311.59826013 91.76412964 321.70483398 C94.14284156 325.35977589 96.51185736 329.02097 98.87985229 332.68286133 C99.32627075 333.3731543 99.77268921 334.06344727 100.2326355 334.7746582 C101.12584149 336.15596822 102.01898952 337.53731573 102.91207886 338.91870117 C105.19209159 342.44484449 107.47355436 345.97004942 109.75485229 349.49536133 C110.67152571 350.91202363 111.58819238 352.32869029 112.50485229 353.74536133 C113.18547729 354.79723633 113.18547729 354.79723633 113.87985229 355.87036133 C140.0048523 396.24536133 140.0048523 396.24536133 141.38156128 398.37304688 C142.29247728 399.7807967 143.20344678 401.1885119 144.11447144 402.59619141 C146.49457747 406.27399451 148.87357705 409.95250703 151.25094604 413.63208008 C151.74336792 414.39391602 152.23578979 415.15575195 152.74313354 415.94067383 C153.67967869 417.38966821 154.61589933 418.8388724 155.55172729 420.28833008 C155.97840698 420.94833008 156.40508667 421.60833008 156.84469604 422.28833008 C157.24930054 422.91658691 157.65390503 423.54484375 158.07077026 424.19213867 C158.84847196 425.37649016 159.64401837 426.54935068 160.45846558 427.70874023 C163.25485229 431.69779386 163.25485229 431.69779386 163.25485229 434.99536133 C146.60786769 435.21558558 129.9627491 435.34933842 113.31443977 435.38139248 C105.5833574 435.39827315 97.85434123 435.44297656 90.12399292 435.55419922 C83.38253827 435.65112218 76.64314879 435.69480391 69.90098846 435.6757217 C66.33301748 435.66745246 62.76957089 435.68503953 59.20242691 435.7665081 C37.54342844 436.23594307 37.54342844 436.23594307 32.10749245 432.53231621 C28.7546466 429.09436768 26.75041654 425.26647201 25.0173645 420.82498837 C23.88938666 418.11843661 22.2670113 415.81000966 20.59469604 413.41333008 C19.45984321 411.67032094 18.32574155 409.92682251 17.19235229 408.18286133 C15.89692551 406.19318285 14.60134664 404.20360337 13.30563354 402.21411133 C12.64257202 401.19575195 11.9795105 400.17739258 11.2963562 399.12817383 C7.83019721 393.80914103 4.35500738 388.49601926 0.87985229 383.18286133 C0.17288208 382.10182129 -0.53408813 381.02078125 -1.26248169 379.90698242 C-3.42324858 376.60302906 -5.58417261 373.29917852 -7.74514771 369.99536133 C-22.23964238 347.83538322 -36.71889606 325.66569945 -51.14358521 303.46020508 C-52.7809564 300.94025087 -54.41917948 298.42085238 -56.05764771 295.90161133 C-61.56983176 287.42575667 -67.07624069 278.94628575 -72.56399536 270.45458984 C-75.10715006 266.52101012 -77.65727282 262.59207694 -80.21389771 258.66723633 C-80.80106567 257.76553711 -81.38823364 256.86383789 -81.99319458 255.93481445 C-83.13434902 254.18300881 -84.27623915 252.43168213 -85.41897583 250.6809082 C-85.93911255 249.88233398 -86.45924927 249.08375977 -86.99514771 248.26098633 C-87.45405396 247.55748047 -87.91296021 246.85397461 -88.38577271 246.12915039 C-88.83436646 245.425 -89.28296021 244.72084961 -89.74514771 243.99536133 C-90.25788742 243.33762726 -90.77062714 242.67989319 -91.29890442 242.00222778 C-93.40908555 237.6149764 -93.21994125 233.56408376 -93.24441528 228.75170898 C-93.26091629 227.72168762 -93.2774173 226.69166626 -93.29441833 225.63043213 C-93.34331619 222.22338533 -93.36865251 218.81675073 -93.38967896 215.40942383 C-93.39940924 214.24121471 -93.40913952 213.0730056 -93.41916466 211.86939621 C-93.46999448 205.67944186 -93.50275526 199.48969415 -93.52078247 193.29956055 C-93.54274247 186.93622066 -93.62506786 180.57520357 -93.72189808 174.2126255 C-93.78564401 169.29485614 -93.80410358 164.37763128 -93.8107357 159.4594841 C-93.82159001 157.11606478 -93.84905499 154.77265618 -93.89414406 152.42964554 C-94.16873293 137.1188161 -92.71586912 127.77188808 -82.74514771 115.99536133 C-81.49723706 114.1220714 -80.27313148 112.23226535 -79.09280396 110.31567383 C-78.55026978 109.4593335 -78.0077356 108.60299316 -77.44876099 107.72070312 C-76.9071936 106.86259033 -76.36562622 106.00447754 -75.80764771 105.12036133 C-71.25865304 97.94249809 -66.68404789 90.78343942 -62.05422974 83.6574707 C-59.3968187 79.56209972 -56.7599131 75.45447922 -54.13967896 71.33520508 C-46.62740947 59.53182479 -39.00058301 47.82355725 -31.21035767 36.20278931 C-21.11450141 22.10707409 -21.11450141 22.10707409 -12.88493061 6.95189667 C-9.89871405 0.64184037 -6.72656581 0.06824908 0 0 Z "
        fill="#3E68BB" transform="translate(1177.7451477050781,111.004638671875)" />
    <path
        d="M0 0 C35.97 0 71.94 0 109 0 C109 143.22 109 286.44 109 434 C73.03 434 37.06 434 0 434 C0 290.78 0 147.56 0 0 Z "
        fill="#3E68BB" transform="translate(956,112)" />
    <path
        d="M0 0 C3.16827435 3.37128999 5.33570192 7.18853462 7.625 11.1875 C15.16103793 23.64917998 25.85067782 32.51658679 40.01806641 36.57861328 C52.95049495 39.32822792 65.54628374 35.78691807 76.484375 28.8359375 C82.52868937 24.42471428 88.30272316 19.38575984 92.875 13.4375 C95.38843275 10.55444478 96.26371617 10.30913618 100 10 C109.74081784 12.45195277 118.5350035 17.75423534 127 23 C127.82757812 23.42410156 128.65515625 23.84820312 129.5078125 24.28515625 C131.83759135 25.70586453 132.86190658 26.50476589 134 29 C133.95825115 32.91511449 133.37737587 36.64865283 132.703125 40.4921875 C130.87915921 51.15069531 130.65519098 62.96260447 135 73 C135.30550781 73.79148437 135.61101563 74.58296875 135.92578125 75.3984375 C141.06393064 87.24420737 152.65143948 99.01607498 164.5390625 104.08203125 C170.93300888 106.04271269 177.61103153 106.66350287 184.25048828 107.26708984 C187.90218034 107.62042525 189.88751625 107.92501083 193 110 C194.02734375 112.07202148 194.02734375 112.07202148 194.9375 114.62109375 C195.27523437 115.55759766 195.61296875 116.49410156 195.9609375 117.45898438 C196.47527344 118.93334961 196.47527344 118.93334961 197 120.4375 C197.51433594 121.8596582 197.51433594 121.8596582 198.0390625 123.31054688 C205.22720856 143.48948362 205.22720856 143.48948362 204 151 C201.7809233 152.96327536 200.18633297 154.05591352 197.625 155.375 C183.90407163 163.31457975 174.98304968 174.22874652 170.6953125 189.578125 C168.10938682 202.30436599 170.35349202 214.32206856 177 225.4375 C180.99996428 231.35465849 185.70375923 236.68698734 190.42578125 242.03125 C195.02637502 247.33694236 195.02637502 247.33694236 194.92480469 249.89038086 C193.44561913 256.17548339 191.07006789 261.76709263 188.25 267.5625 C187.83234375 268.45646484 187.4146875 269.35042969 186.984375 270.27148438 C181.51771028 281.66314698 181.51771028 281.66314698 177 286 C174.32421875 286.59765625 174.32421875 286.59765625 171.6875 286.0625 C170.73230469 285.90265625 169.77710937 285.7428125 168.79296875 285.578125 C167.87128906 285.38734375 166.94960937 285.1965625 166 285 C153.43751576 282.88865811 143.58735508 285.92915928 133 293 C128.70228776 296.36204325 124.83099343 300.12285003 121 304 C120.3709375 304.61875 119.741875 305.2375 119.09375 305.875 C109.41233809 316.14915142 107.65384808 329.58073871 107.875 343.0625 C107.88402344 344.11888672 107.89304687 345.17527344 107.90234375 346.26367188 C107.9256833 348.84269253 107.95842225 351.4212199 108 354 C95.68289087 360.1157656 81.87515063 365.54507703 68 366 C67.45472656 365.10539062 66.90945312 364.21078125 66.34765625 363.2890625 C56.92531631 348.07355634 44.91054031 333.65730234 26.6875 329.1875 C9.72511672 328.32500593 -2.55514057 330.47659421 -15.9375 341.9375 C-20.28354855 346.04343537 -24.31097669 350.62195339 -27 356 C-33.21861139 356.37187709 -37.1101775 355.56155578 -42.5625 352.625 C-43.57763672 352.09024048 -43.57763672 352.09024048 -44.61328125 351.54467773 C-46.75877172 350.39073164 -48.88048305 349.20091532 -51 348 C-51.72429199 347.59894043 -52.44858398 347.19788086 -53.19482422 346.78466797 C-55.32419238 345.58501721 -57.41406163 344.33591451 -59.5 343.0625 C-60.15299072 342.6927002 -60.80598145 342.32290039 -61.47875977 341.94189453 C-63.98235435 340.33522636 -65.78498642 338.93553306 -66.46875 335.96044922 C-66.59317151 331.42781262 -65.68693669 327.30909729 -64.47607422 322.96972656 C-61.17124306 309.2961995 -65.31014428 295.78410036 -72.375 284.0625 C-79.23838934 273.99619564 -88.15358013 266.74327996 -100.0859375 263.5234375 C-108.25667008 262.0557724 -116.71835498 261.93570151 -125 262 C-137.30319095 226.22758665 -137.30319095 226.22758665 -135 219 C-132.375 216.796875 -132.375 216.796875 -129 214.75 C-115.30270607 205.87403356 -107.01461338 192.9457955 -103 177.1875 C-100.4127769 163.56257837 -102.484671 150.79644926 -110 139 C-113.59039723 134.5364517 -117.51295389 130.42134451 -121.65234375 126.46484375 C-122.48894531 125.63082031 -123.32554688 124.79679687 -124.1875 123.9375 C-124.96480469 123.20402344 -125.74210937 122.47054687 -126.54296875 121.71484375 C-128.46007187 118.14276152 -127.97356694 116.37198514 -126.90551758 112.55786133 C-125.1761097 107.67271536 -123.01219668 103.03282051 -120.75 98.375 C-120.28464844 97.37726563 -119.81929687 96.37953125 -119.33984375 95.3515625 C-113.82999534 83.8765063 -113.82999534 83.8765063 -109 80 C-105.08140751 79.46866542 -102.7272844 79.75757187 -99 81 C-82.71899963 82.02619639 -71.09462191 78.4102441 -58.75 67.5625 C-48.70095278 58.12677491 -41.56781135 48.14329772 -40.84375 33.93359375 C-40.80405463 30.59918263 -40.82497684 27.27173619 -40.875 23.9375 C-40.88402344 22.78572266 -40.89304687 21.63394531 -40.90234375 20.44726562 C-40.92571286 17.63128807 -40.95847435 14.81575842 -41 12 C-36.81444331 10.36996344 -32.62622547 8.7468745 -28.4375 7.125 C-27.25607422 6.66480469 -26.07464844 6.20460937 -24.85742188 5.73046875 C-7.73631578 -0.88777394 -7.73631578 -0.88777394 0 0 Z M-42 107 C-62.72745369 132.58853509 -71.59160501 162.8214417 -68.77734375 195.59277344 C-65.36471175 225.11684675 -51.41480794 252.50595121 -28.5625 271.75 C-7.10895749 288.62999628 18.11494527 296.93903313 45.39453125 294.50390625 C67.43934799 291.42288636 85.62899252 281.7824461 102 267 C102.66773437 266.40445313 103.33546875 265.80890625 104.0234375 265.1953125 C116.85382186 253.0877667 125.74945512 237.37527309 131.4375 220.8125 C131.67243164 220.13743408 131.90736328 219.46236816 132.14941406 218.7668457 C135.74214239 207.54023501 136.35367244 195.80374079 136.31567383 184.09594727 C136.31250652 182.06667565 136.33612655 180.03885975 136.36132812 178.00976562 C136.50499065 148.76197265 123.61833171 121.707265 103.73828125 100.65234375 C82.93678266 80.50367393 58.36246619 71.55300158 29.52026367 71.63427734 C1.46131511 72.08660677 -23.62462837 86.10439511 -42 107 Z "
        fill="#3E68BB" transform="translate(2063,219)" />
    <path
        d="M0 0 C1.73828125 2.3203125 1.73828125 2.3203125 3.3125 5.125 C9.11592818 14.68064467 16.19887098 21.71321092 27.28515625 24.59375 C35.89982467 25.93077085 44.75883278 23.79463693 52 19 C56.18477354 15.68965675 60.00023298 12.30525139 63.25 8.0625 C65 6 65 6 67.25390625 5.21484375 C75.76256172 4.54915947 85.55052986 13.01515057 92 18 C94 20 94 20 94.16357422 22.36328125 C94.1276416 23.33652344 94.09170898 24.30976562 94.0546875 25.3125 C94.03019531 26.38886719 94.00570312 27.46523437 93.98046875 28.57421875 C93.9111095 30.82710986 93.83322743 33.07975756 93.74609375 35.33203125 C93.50738237 47.1693072 97.36375934 55.99514594 105 65 C112.20462571 71.85811064 119.58598788 74.25334835 129.38671875 74.59375 C132.70782662 75.11003583 134.39352102 75.84943979 137 78 C138.28255295 80.62879928 139.27248566 83.00245011 140.1875 85.75 C140.43435547 86.4409375 140.68121094 87.131875 140.93554688 87.84375 C141.65555723 89.88665938 142.33392703 91.93894403 143 94 C143.38800781 95.18078125 143.77601563 96.3615625 144.17578125 97.578125 C145.08569726 101.35578579 145.57686032 104.14084918 145 108 C142.95671331 110.03714147 141.3015259 111.39096204 138.9375 112.9375 C137.7354777 113.79636616 136.53752745 114.66096034 135.34375 115.53125 C134.76496094 115.95019531 134.18617188 116.36914062 133.58984375 116.80078125 C125.97409686 122.54533726 122.02027456 130.16310862 120.62109375 139.5390625 C120.04711833 151.20372417 125.86855622 160.27318544 133 169 C135.4842732 171.63483928 135.4842732 171.63483928 138.06640625 174.171875 C139.62606892 177.22594248 138.96151176 179.86383735 138 183 C136.35853862 186.73246963 134.451353 190.29670028 132.5 193.875 C131.98824219 194.83664063 131.47648437 195.79828125 130.94921875 196.7890625 C127.19179806 203.80820194 127.19179806 203.80820194 126 205 C124.4832488 205.10896902 122.96193568 205.15581398 121.44140625 205.17578125 C120.49716797 205.19962891 119.55292969 205.22347656 118.58007812 205.24804688 C116.60371938 205.29026036 114.62710012 205.32191046 112.65039062 205.34179688 C101.71505954 205.65886986 94.0766992 209.00134755 86.19921875 216.58203125 C77.63625091 225.99673301 76.83074152 236.86921012 76.63671875 249.15234375 C76 252 76 252 73.83984375 254.2109375 C70.9155095 256.05322786 68.08551992 257.41214309 64.875 258.6875 C63.84117187 259.10386719 62.80734375 259.52023437 61.7421875 259.94921875 C56.4076062 261.99338167 51.64604825 263.68807829 46 262 C42.42236789 258.39337573 39.81336913 254.21213615 37 250 C34.85058388 247.39832062 32.59505453 245.15395254 30 243 C29.40574219 242.4946875 28.81148437 241.989375 28.19921875 241.46875 C20.86539672 236.3421948 11.54694849 237.00734658 3 238 C-7.07812111 240.15506992 -13.60167647 247.30181482 -20.359375 254.6171875 C-22.30126636 256.25392451 -23.49603711 256.63693683 -26 257 C-27.88769531 256.38256836 -27.88769531 256.38256836 -29.828125 255.33984375 C-30.54242676 254.96150391 -31.25672852 254.58316406 -31.99267578 254.19335938 C-33.11005127 253.57170898 -33.11005127 253.57170898 -34.25 252.9375 C-35.00909668 252.51919922 -35.76819336 252.10089844 -36.55029297 251.66992188 C-38.7104338 250.46369998 -40.85584351 249.23433874 -43 248 C-43.96679688 247.46503906 -44.93359375 246.93007813 -45.9296875 246.37890625 C-48.04894858 245.04776895 -49.56280613 244.04812646 -51 242 C-51.40603806 238.79172741 -50.84347952 236.09660976 -50 233 C-47.70420794 222.54139172 -49.50140133 213.27852357 -54.73046875 203.89453125 C-59.31394722 197.11537447 -64.26836879 192.44010834 -72.33203125 190.4140625 C-75.55357831 189.91408594 -78.74598241 189.69636313 -82 189.5 C-86.09476577 189.25290207 -89.99682959 188.90981146 -94 188 C-97.41638906 177.34660358 -99.91227548 167.15323501 -101 156 C-100.03900391 155.36384766 -100.03900391 155.36384766 -99.05859375 154.71484375 C-89.02800129 147.91317524 -81.41565722 140.91775168 -77.3515625 129.1171875 C-75.76685455 119.57372405 -75.95610205 109.00165807 -81.4765625 100.80859375 C-83.95248654 97.55823685 -86.59084942 94.47112175 -89.26953125 91.38671875 C-90.00558594 90.51660156 -90.74164062 89.64648438 -91.5 88.75 C-92.1909375 87.96109375 -92.881875 87.1721875 -93.59375 86.359375 C-95 84 -95 84 -94.70825195 81.6340332 C-93.55052786 77.32838507 -91.59878526 73.45272807 -89.6875 69.4375 C-89.29626953 68.58736328 -88.90503906 67.73722656 -88.50195312 66.86132812 C-84.63307016 58.68085419 -84.63307016 58.68085419 -81 56 C-77.41694855 55.69635157 -74.33342525 55.79194783 -70.796875 56.34375 C-63.8441898 57.41339388 -58.71589476 56.38694629 -52.75 52.5546875 C-44.15553094 46.13867761 -35.32161022 38.88293527 -33 28 C-32.85701869 26.3413488 -32.75458775 24.6789131 -32.68359375 23.015625 C-32.64169922 22.08105469 -32.59980469 21.14648438 -32.55664062 20.18359375 C-32.51732422 19.21550781 -32.47800781 18.24742188 -32.4375 17.25 C-32.37272461 15.77466797 -32.37272461 15.77466797 -32.30664062 14.26953125 C-32.20077948 11.84648725 -32.09869829 9.4233446 -32 7 C-25.84320282 4.34286475 -19.58687948 2.11746065 -13.1875 0.125 C-12.09417358 -0.23404419 -12.09417358 -0.23404419 -10.97875977 -0.6003418 C-6.64826783 -1.90939817 -3.871996 -2.5629582 0 0 Z M-23 70 C-23.59039063 70.44601563 -24.18078125 70.89203125 -24.7890625 71.3515625 C-39.16487769 82.57651408 -46.5644419 100.90279617 -49.58984375 118.4140625 C-52.36992019 142.71987364 -45.77799027 165.42778494 -30.6875 184.75 C-18.33781626 199.19249927 -1.12998946 207.81716857 17.6875 209.875 C35.8224573 210.82738288 53.06133949 204.54901345 66.61083984 192.57666016 C83.61286042 177.15392741 93.65531388 157.23476182 94.92529297 134.13598633 C95.65738439 112.85737057 88.00930161 91.99752127 74 76 C73.43023438 75.33613281 72.86046875 74.67226562 72.2734375 73.98828125 C59.5000148 60.15493624 42.46184524 53.54024537 24 52 C23.21238281 51.91621094 22.42476562 51.83242187 21.61328125 51.74609375 C5.02087446 50.76635163 -10.78090721 59.71277959 -23 70 Z "
        fill="#3E68BB" transform="translate(2462,57)" />
    <path
        d="M0 0 C0.64743164 0.34111816 1.29486328 0.68223633 1.96191406 1.03369141 C18.01238332 9.51728508 32.41445615 19.99545314 46 32 C46.77730469 32.66644531 47.55460937 33.33289063 48.35546875 34.01953125 C70.23869014 53.11556093 93.91726794 77.50360146 105 105 C105.14453125 107.796875 105.14453125 107.796875 105 110 C98.17654821 113.32284326 89.35332617 113.74866771 82 112 C78.59067258 109.49947635 76.95393012 106.54196794 75.01513672 102.82763672 C73.02379811 99.24246096 70.56715398 95.95927827 68.1875 92.625 C67.67396973 91.89450439 67.16043945 91.16400879 66.63134766 90.41137695 C61.80333544 83.588725 56.56579364 77.2286642 51 71 C50.5153125 70.45359863 50.030625 69.90719727 49.53125 69.34423828 C18.97544837 35.0385873 -20.83221697 12.50196624 -65.5 2.125 C-66.32234131 1.93381592 -67.14468262 1.74263184 -67.99194336 1.5456543 C-82.57207138 -1.62043955 -97.0097616 -2.40914006 -111.875 -2.375 C-112.77119049 -2.37445618 -113.66738098 -2.37391235 -114.59072876 -2.37335205 C-129.70914769 -2.33135411 -144.20291851 -1.33677108 -159 2 C-160.42965088 2.32145996 -160.42965088 2.32145996 -161.88818359 2.64941406 C-203.05778632 12.26148443 -238.49265564 34.24939878 -269 63 C-269.7321875 63.68964844 -270.464375 64.37929687 -271.21875 65.08984375 C-276.63029742 70.34033321 -281.3230937 76.09521027 -286 82 C-287.15628906 83.41345703 -287.15628906 83.41345703 -288.3359375 84.85546875 C-316.81526082 120.47766443 -331.97488455 163.23967003 -338 208 C-338.10747559 208.79438477 -338.21495117 209.58876953 -338.32568359 210.40722656 C-338.98343916 215.71289189 -339 220.57129964 -339 226 C-335.04 218.41 -331.08 210.82 -327 203 C-323.04 202.938125 -323.04 202.938125 -319 202.875 C-318.1853125 202.85679199 -317.370625 202.83858398 -316.53125 202.81982422 C-311.3613388 202.78129844 -306.96852702 203.56590243 -302 205 C-301.25673152 211.77099459 -303.63354636 215.63685287 -307.125 221.3125 C-308.23766113 223.18555181 -309.34688699 225.06064749 -310.453125 226.9375 C-311.32807617 228.41669922 -311.32807617 228.41669922 -312.22070312 229.92578125 C-315.2429521 235.14753743 -318.04807509 240.48328648 -320.875 245.8125 C-327.13567185 257.5452558 -333.66784921 269.11040614 -340.52001953 280.50878906 C-341.48855077 282.1390914 -342.42849603 283.78680331 -343.33544922 285.45214844 C-346.33822659 290.78444519 -346.33822659 290.78444519 -349.56640625 291.8359375 C-353.12487075 290.6136078 -353.97918443 288.82810626 -355.9375 285.625 C-356.31100586 285.017771 -356.68451172 284.41054199 -357.06933594 283.78491211 C-362.17857164 275.3045187 -366.72658698 266.48736992 -371.375 257.75 C-374.73149532 251.46106336 -378.21693323 245.25351846 -381.75 239.0625 C-385.8483402 231.8433367 -389.92698294 224.61520275 -393.875 217.3125 C-394.31038086 216.52818604 -394.74576172 215.74387207 -395.19433594 214.93579102 C-395.58137695 214.21061279 -395.96841797 213.48543457 -396.3671875 212.73828125 C-396.70862793 212.10962158 -397.05006836 211.48096191 -397.40185547 210.83325195 C-398.16395773 208.4974863 -397.90499391 207.26278445 -397 205 C-393.26771733 202.87111674 -389.86088034 202.72987705 -385.625 202.75 C-384.54476563 202.74484375 -383.46453125 202.7396875 -382.3515625 202.734375 C-373.38437851 203.44506091 -373.38437851 203.44506091 -370.68545532 206.47650146 C-369.52888295 208.31754238 -368.52854608 210.17748195 -367.5625 212.125 C-367.21251953 212.78371094 -366.86253906 213.44242188 -366.50195312 214.12109375 C-365.64734533 215.73665369 -364.8207694 217.36698867 -364 219 C-363.84966309 217.94425781 -363.69932617 216.88851562 -363.54443359 215.80078125 C-355.550382 160.06717807 -339.90049532 107.8743504 -303 64 C-302.58733887 63.49855469 -302.17467773 62.99710937 -301.74951172 62.48046875 C-290.46930392 48.77577265 -278.17931261 35.73830788 -264 25 C-263.47712402 24.59539551 -262.95424805 24.19079102 -262.41552734 23.77392578 C-188.52852157 -33.28457042 -85.2406213 -45.68221787 0 0 Z "
        fill="#3E68BB" transform="translate(2209,167)" />
    <path
        d="M0 0 C49.5 0 99 0 150 0 C151 3 151 3 150.21444702 4.74182129 C149.78451447 5.38711792 149.35458191 6.03241455 148.91162109 6.69726562 C148.42345917 7.44076767 147.93529724 8.18426971 147.43234253 8.95030212 C146.88490387 9.76076492 146.33746521 10.57122772 145.7734375 11.40625 C145.2069046 12.26219254 144.6403717 13.11813507 144.05667114 14.00001526 C142.17284751 16.84018175 140.27416031 19.67007042 138.375 22.5 C137.05979361 24.47532875 135.74535023 26.45116572 134.43164062 28.42749023 C130.30344049 34.62887885 126.15330718 40.81540924 122 47 C120.66175577 48.99493559 119.32353916 50.9898897 117.98535156 52.98486328 C112.99551233 60.41982666 107.996569 67.84862921 102.98583984 75.26953125 C102.14366158 76.52258308 102.14366158 76.52258308 101.2844696 77.8009491 C100.16276903 79.44908554 99.02300184 81.08507826 97.86506653 82.70796204 C94.94794013 86.83682068 92.60362779 90.72803485 90.7043457 95.42260742 C88.13178342 101.19091174 85.62343781 105.7985644 80 109 C67.31453293 112.69646844 52.02452433 110.73466188 39.1875 110.1875 C26.255625 109.795625 13.32375 109.40375 0 109 C0 73.03 0 37.06 0 0 Z "
        fill="#3E68BB" transform="translate(698,274)" />
    <path
        d="M0 0 C50.16 0 100.32 0 152 0 C149.75723778 4.48552445 147.17233074 8.63706135 144.5 12.875 C144.02046875 13.64585937 143.5409375 14.41671875 143.046875 15.2109375 C140.01046541 20.03162901 136.80645906 24.69952688 133.46484375 29.3125 C126.67947458 38.7030747 120.40276727 48.43129348 114.0625 58.125 C112.87206143 59.94421766 111.68130714 61.76322875 110.49023438 63.58203125 C109.89561905 64.49364014 109.30100372 65.40524902 108.68836975 66.34448242 C107.45255588 68.21650487 106.19814461 70.07637128 104.92625427 71.92407227 C101.66294495 76.70312136 98.71551825 81.43477638 96.21838188 86.64896202 C86.72663721 106.30530099 86.72663721 106.30530099 77.95943832 109.81745148 C65.43507821 113.26377498 51.51048641 111.55849273 38.8125 110.75 C26.004375 110.1725 13.19625 109.595 0 109 C0 73.03 0 37.06 0 0 Z "
        fill="#3E68BB" transform="translate(3410,277)" />
    <path
        d="M0 0 C50.16 0 100.32 0 152 0 C146.37930482 10.11725132 146.37930482 10.11725132 143.375 14.4921875 C142.68301514 15.50531006 141.99103027 16.51843262 141.27807617 17.56225586 C140.90927338 18.09849579 140.54047058 18.63473572 140.16049194 19.18722534 C138.07386085 22.221941 136.00123588 25.26622898 133.92578125 28.30859375 C133.23975578 29.31301262 133.23975578 29.31301262 132.53987122 30.33772278 C126.68454661 38.91546111 120.88021983 47.52764793 115.07446289 56.13897705 C113.24375662 58.85406675 111.4119907 61.56843896 109.58007812 64.28271484 C102.91615511 74.1614885 96.27866122 84.05698639 89.69535828 93.98973083 C88.8818969 95.21406578 88.8818969 95.21406578 88.05200195 96.46313477 C87.58196243 97.17220474 87.11192291 97.88127472 86.62763977 98.61183167 C86.09051865 99.39992722 85.55339752 100.18802277 85 101 C84.66186877 101.59798369 84.32373755 102.19596739 83.97535992 102.8120718 C82.77763975 104.77665038 81.65032292 106.39357497 80 108 C76.99844288 108.69444485 75.07656961 108.89756072 72.08862305 108.79467773 C70.89825675 108.79594335 70.89825675 108.79594335 69.68384266 108.79723454 C67.12505062 108.79202565 64.56986824 108.73882005 62.01171875 108.68359375 C60.42828082 108.6732962 58.84481908 108.66615836 57.26135254 108.66223145 C51.4030373 108.62559487 45.54523283 108.52786503 39.6875 108.4375 C26.590625 108.293125 13.49375 108.14875 0 108 C0 72.36 0 36.72 0 0 Z "
        fill="#3E68BB" transform="translate(3905,115)" />
    <path
        d="M0 0 C7.89522757 4.689844 13.18660481 11.35965927 15.94140625 20.1015625 C17.95125573 29.68310906 17.29259421 39.06277175 12.0859375 47.4375 C7.68449371 53.54726673 2.73712627 57.67095791 -4.4375 60.0625 C-14.21927867 60.83971283 -22.05811508 60.77043745 -30.4375 55.0625 C-31.345 54.485 -32.2525 53.9075 -33.1875 53.3125 C-36.51887754 49.98112246 -39.13119279 46.16788534 -41.4375 42.0625 C-41.4375 41.4025 -41.4375 40.7425 -41.4375 40.0625 C-76.7475 40.0625 -112.0575 40.0625 -148.4375 40.0625 C-148.39796519 65.37208105 -148.39796519 65.37208105 -148.34741211 90.68164062 C-148.34289551 95.59667969 -148.34289551 95.59667969 -148.34205627 97.90368652 C-148.34052907 99.50167113 -148.33702951 101.09965465 -148.33192444 102.69763184 C-148.32454832 105.12982154 -148.3235959 107.56194132 -148.32397461 109.99414062 C-148.3203765 110.69608803 -148.31677839 111.39803543 -148.31307125 112.12125397 C-148.3228679 116.85743134 -148.77769521 121.38310064 -149.4375 126.0625 C-155.64687894 126.8446988 -161.68437777 127.20615825 -167.93862915 127.18948364 C-169.30870371 127.19182363 -169.30870371 127.19182363 -170.70645654 127.19421089 C-173.74393703 127.19817546 -176.78136686 127.19504896 -179.81884766 127.19189453 C-182.00583424 127.19325057 -184.19282059 127.19503164 -186.37980652 127.19720459 C-192.3031141 127.20175427 -198.22640421 127.19999964 -204.14971209 127.1968255 C-210.3537453 127.19428982 -216.55777703 127.19664275 -222.7618103 127.19821167 C-233.84379524 127.20014591 -244.92577246 127.19704332 -256.00775616 127.19195233 C-266.04781792 127.18748277 -276.08786813 127.18826299 -286.12792969 127.19287109 C-297.80214337 127.19820787 -309.47634983 127.20021257 -321.15056455 127.19725883 C-327.32497458 127.19570052 -333.49937665 127.19549017 -339.67378616 127.19879532 C-345.47682043 127.20168488 -351.27983286 127.19967833 -357.08286476 127.19390106 C-359.2117325 127.19257942 -361.34060207 127.19295747 -363.46946907 127.19516373 C-366.37645019 127.19789854 -369.28336146 127.19446556 -372.19033813 127.18948364 C-373.03149064 127.19171436 -373.87264314 127.19394509 -374.73928511 127.19624341 C-387.34562466 127.15437534 -387.34562466 127.15437534 -389.4375 125.0625 C-389.51075168 122.19982433 -389.52988205 119.361781 -389.5 116.5 C-389.49548828 115.69369141 -389.49097656 114.88738281 -389.48632812 114.05664062 C-389.47450518 112.05856244 -389.45656914 110.06052217 -389.4375 108.0625 C-385.77220217 105.76518088 -382.57845078 105.75237405 -378.30786133 105.65063477 C-377.55787306 105.63139135 -376.80788479 105.61214794 -376.0351696 105.5923214 C-373.42590551 105.53042193 -370.81666009 105.48516285 -368.20703125 105.44140625 C-367.26640146 105.42284639 -366.32577168 105.40428654 -365.35663795 105.38516426 C-330.59168346 104.70975057 -295.80557571 104.95023758 -261.0359565 104.99047148 C-251.02310107 105.0018606 -241.01024477 105.0072006 -230.99738443 105.01217639 C-210.47741573 105.02250186 -189.95745871 105.0399768 -169.4375 105.0625 C-169.44273682 104.40620605 -169.44797363 103.74991211 -169.45336914 103.07373047 C-169.63790205 75.3844513 -168.95046491 47.762605 -168.4375 20.0625 C-126.5275 20.0625 -84.6175 20.0625 -41.4375 20.0625 C-40.7775 18.0825 -40.1175 16.1025 -39.4375 14.0625 C-31.37187404 0.08893146 -15.31078178 -6.8946067 0 0 Z M-20.4375 23.0625 C-22.00961731 25.72826414 -22.42119075 27.42643906 -22.5 30.5 C-20.85768972 34.46086596 -18.07497051 36.8567998 -14.4375 39.0625 C-10.66531583 39.33194173 -9.583078 38.18491786 -6.6875 35.75 C-4.01879362 32.758863 -4.01879362 32.758863 -3.4375 29.0625 C-4.87534302 25.53978461 -6.3187056 22.34161899 -9.4375 20.0625 C-14.25195785 18.11069276 -16.63640355 19.85268522 -20.4375 23.0625 Z "
        fill="#3E68BB" transform="translate(2730.4375,414.9375)" />
    <path
        d="M0 0 C0.94040131 -0.00440094 1.88080261 -0.00880188 2.84970093 -0.01333618 C18.77943081 -0.04439843 33.72782733 1.71201723 49.0625 6.1875 C49.9380957 6.44168701 50.81369141 6.69587402 51.71582031 6.95776367 C60.73326115 9.67977938 69.18484872 13.34742275 77.625 17.5 C78.34671387 17.84933594 79.06842773 18.19867187 79.81201172 18.55859375 C103.29036132 30.02220107 123.4404782 47.08423067 139.625 67.5 C140.03685547 68.01369141 140.44871094 68.52738281 140.87304688 69.05664062 C158.30132049 90.83526913 158.30132049 90.83526913 158.625 98.5 C157.63671875 100.2578125 157.63671875 100.2578125 155.625 101.5 C150.40299337 102.5778519 145.80216968 102.59078732 140.625 101.5 C136.94511079 98.44533468 134.98431751 94.61279775 132.625 90.5 C131.07148548 88.33893607 129.50728542 86.22347097 127.875 84.125 C127.45951904 83.58496338 127.04403809 83.04492676 126.6159668 82.48852539 C101.4985445 50.25727771 65.21113173 27.89442961 24.625 21.5 C23.48675781 21.31824219 22.34851562 21.13648437 21.17578125 20.94921875 C-17.59371877 16.31323564 -58.41005646 25.73740359 -89.6171875 49.6796875 C-93.6232162 52.85325808 -97.51839255 56.14720735 -101.375 59.5 C-102.19170166 60.20503662 -102.19170166 60.20503662 -103.02490234 60.92431641 C-108.95286637 66.07135104 -114.44818705 71.38690454 -119.375 77.5 C-120.14457031 78.44359375 -120.91414063 79.3871875 -121.70703125 80.359375 C-138.88371629 101.80268852 -150.00177053 126.95134216 -155.8125 153.75 C-155.9765332 154.49942871 -156.14056641 155.24885742 -156.30957031 156.02099609 C-157.35563819 161.25016536 -157.50668629 166.16933887 -157.375 171.5 C-156.818125 170.365625 -156.26125 169.23125 -155.6875 168.0625 C-153.7296274 165.28322108 -152.70673773 164.58336414 -149.359375 163.7421875 C-143.6156477 163.23075973 -138.7020804 162.99729212 -133.375 165.5 C-132.32156344 167.92093506 -132.24464822 169.10763707 -133.08081055 171.62451172 C-133.47051025 172.38521973 -133.86020996 173.14592773 -134.26171875 173.9296875 C-134.69959717 174.79658203 -135.13747559 175.66347656 -135.58862305 176.55664062 C-136.07500244 177.48669922 -136.56138184 178.41675781 -137.0625 179.375 C-137.55854736 180.34373047 -138.05459473 181.31246094 -138.56567383 182.31054688 C-143.97741437 192.81035724 -149.63054302 203.17927618 -155.375 213.5 C-155.78975586 214.24942871 -156.20451172 214.99885742 -156.63183594 215.77099609 C-157.72718759 217.74691563 -158.83009654 219.71831521 -159.9375 221.6875 C-160.53691406 222.75355469 -161.13632813 223.81960937 -161.75390625 224.91796875 C-163.1520028 227.14481652 -164.33776031 228.85323125 -166.375 230.5 C-168.3125 230.5 -168.3125 230.5 -170.375 229.5 C-173.68547941 225.75835822 -176.13702504 221.6537641 -178.53515625 217.296875 C-178.9217189 216.60188904 -179.30828156 215.90690308 -179.70655823 215.19085693 C-184.18472852 207.10248851 -188.50395061 198.92954662 -192.8125 190.75 C-193.62155987 189.21865229 -194.43080407 187.68740195 -195.24023438 186.15625 C-197.29082694 182.27376154 -199.34055736 178.39098238 -201.375 174.5 C-201.78113525 173.74686523 -202.18727051 172.99373047 -202.60571289 172.21777344 C-203.63186849 169.92642759 -203.51266201 167.97791613 -203.375 165.5 C-197.36555381 163.09622152 -192.40993276 162.97472318 -186.125 164.0625 C-182.19642903 166.11607119 -181.27898079 168.54557837 -179.375 172.5 C-178.00477214 167.32090086 -176.9257439 162.17235274 -176.03271484 156.89111328 C-167.51611184 106.79084741 -141.40992684 61.03595028 -99.5625 31.3359375 C-83.62290323 20.34704564 -66.11629478 11.49891776 -47.48535156 6.11474609 C-46.04698828 5.6957504 -44.61406326 5.25772942 -43.18652344 4.80322266 C-28.90553564 0.36258708 -14.83127851 0.01683214 0 0 Z M-159.375 173.5 C-158.375 175.5 -158.375 175.5 -158.375 175.5 Z "
        fill="#3E68BB" transform="translate(2482.375,-0.5)" />
    <path
        d="M0 0 C7.24591692 0.00432696 14.49181635 0.00124504 21.73773217 -0.00362909 C28.86262954 -0.00822205 35.98751956 -0.00878179 43.11241794 -0.00619042 C47.31134607 -0.00466429 51.5102626 -0.00432936 55.70918989 -0.00772691 C76.95335936 -0.02265285 98.14904512 0.33317256 119.37902784 1.12856841 C120.42425442 15.76174044 120.37902784 30.45811435 120.37902784 45.12856841 C157.99902784 45.12856841 195.61902784 45.12856841 234.37902784 45.12856841 C235.03902784 43.14856841 235.69902784 41.16856841 236.37902784 39.12856841 C241.21360863 32.12590243 247.16331556 27.46460227 255.37902784 25.12856841 C266.36887866 24.02056469 274.14759027 25.48050276 282.69152784 32.44106841 C287.19356922 36.61128602 290.98530522 41.77372463 291.5560298 48.08633208 C291.62284943 50.4963645 291.66394424 52.90526177 291.69152784 55.31606841 C291.72053175 56.14171294 291.74953566 56.96735747 291.77941847 57.81802154 C291.86311331 65.98792601 288.83874118 72.44738016 283.31652784 78.45278716 C276.04043917 84.74601708 268.23846663 87.09349273 258.71496534 86.65200591 C251.16785777 85.46779934 244.6894076 81.55963862 239.37902784 76.12856841 C238.58430788 74.42946548 237.79330937 72.72861932 237.00506544 71.02650237 C235.14249278 67.90090493 234.20554346 66.41559951 230.73320723 65.20973182 C227.32401546 64.87531584 224.03718907 64.86046068 220.61242628 64.94912505 C219.32729139 64.94273009 218.04215651 64.93633513 216.71807814 64.92974639 C213.20482675 64.91299812 209.6946569 64.95709915 206.18188715 65.01149464 C202.50460674 65.05714458 198.82757138 65.04373908 195.15008497 65.03590178 C188.18937898 65.02946353 181.22990126 65.07125236 174.26949477 65.13262099 C161.79176932 65.24082997 149.31367322 65.26247314 136.8355329 65.2731635 C132.45531516 65.27877336 128.07576417 65.30408095 123.69574642 65.3458966 C121.63087645 65.36395418 119.56608724 65.37554938 117.50115919 65.3844583 C114.98006215 65.39603937 112.45898363 65.41871109 109.93810987 65.45420623 C108.83336317 65.45611968 107.72861647 65.45803313 106.59039259 65.46000457 C105.14472725 65.4725734 105.14472725 65.4725734 103.66985655 65.48539615 C102.91388308 65.36764299 102.1579096 65.24988984 101.37902784 65.12856841 C99.33388657 62.0608565 99.13075511 61.47288793 99.15197706 58.02432036 C99.15220366 56.79338401 99.15220366 56.79338401 99.15243483 55.53758025 C99.1627574 54.65623916 99.17307997 53.77489806 99.18371534 52.86684966 C99.18654524 51.96105666 99.18937513 51.05526366 99.19229078 50.12202239 C99.20348821 47.22823683 99.22859196 44.33476047 99.25402784 41.44106841 C99.26405821 39.47948434 99.27318396 37.51789542 99.28137159 35.55630279 C99.30342611 30.74693881 99.33795295 25.93780604 99.37902784 21.12856841 C98.37518112 21.1294902 97.3713344 21.130412 96.33706808 21.13136172 C71.84593566 21.15361842 47.35480457 21.17002121 22.86366415 21.18038058 C11.01966062 21.18552419 -0.82433621 21.1925298 -12.66833544 21.20400786 C-22.99850838 21.21401405 -33.32867647 21.2204359 -43.65885413 21.22265691 C-49.12225501 21.22395398 -54.585642 21.22697572 -60.04903841 21.23429847 C-65.20521341 21.24115258 -70.36136896 21.24316653 -75.51754808 21.24167609 C-77.39668048 21.24194824 -79.27581362 21.2438971 -81.15494204 21.24777389 C-93.01357826 21.27101181 -104.78771386 20.91616034 -116.62097216 20.12856841 C-118.13812054 17.09427164 -117.76461132 13.95255174 -117.74597216 10.62856841 C-117.74983934 9.93891997 -117.75370653 9.24927154 -117.75769091 8.53872466 C-117.74763862 3.38190134 -117.74763862 3.38190134 -116.62097216 1.12856841 C-77.7543491 -0.13727864 -38.88199368 -0.02595926 0 0 Z M257.56652784 48.19106841 C255.1367083 51.45396894 254.37902784 53.07771992 254.37902784 57.12856841 C255.58505455 60.365798 256.87756792 62.57523333 259.19152784 65.12856841 C261.44189858 66.39649586 261.44189858 66.39649586 264.37902784 65.69106841 C268.201405 63.70024698 269.5436257 62.01962094 271.37902784 58.12856841 C271.37902784 54.16471535 270.9913881 51.99040877 268.69152784 48.75356841 C264.49739762 45.80634177 261.8228875 45.069738 257.56652784 48.19106841 Z "
        fill="#3E68BB" transform="translate(2443.6209721565247,595.8714315891266)" />
    <path
        d="M0 0 C12.08403184 9.31116404 18.59966188 22.77478804 20.74609375 37.703125 C22.10510862 55.34941042 17.63883411 70.95229319 6.3125 84.6875 C-1.26107191 92.88494853 -11.78244633 99.10971796 -23 100 C-38.56234926 100.60071794 -50.2473881 98.14107207 -62.8125 88.25 C-72.85821 78.85240032 -80.72980559 64.84780648 -81.3359375 50.9609375 C-81.62625646 33.06325194 -78.65354791 18.65371238 -66.1796875 5.015625 C-47.12088962 -12.6086397 -21.59435445 -15.47656095 0 0 Z "
        fill="#3E68BB" transform="translate(2127,357)" />
    <path
        d="M0 0 C7.24839016 5.27155648 14.27138246 11.40117497 18.20703125 19.59375 C18.53058594 20.25632813 18.85414063 20.91890625 19.1875 21.6015625 C21.48093885 26.74834077 21.27754258 31.55043621 21.33203125 37.09375 C21.37553711 38.53427734 21.37553711 38.53427734 21.41992188 40.00390625 C21.52784734 52.24099319 15.74334223 60.47554129 7.70703125 69.21875 C0.14579635 76.57835197 -9.30517248 77.8247792 -19.41430664 77.84936523 C-29.70502118 77.63167073 -36.33203638 72.94904783 -43.7109375 66.01171875 C-51.60621191 57.16520645 -53.18486062 48.73113929 -53.29296875 37.34375 C-53.32197266 36.34859375 -53.35097656 35.3534375 -53.38085938 34.328125 C-53.47518762 23.21190387 -50.05522185 15.7233437 -42.41796875 7.734375 C-31.6652198 -2.26016729 -13.78467959 -7.6128408 0 0 Z "
        fill="#3E68BB" transform="translate(2499.98046875,150.53125)" />
</svg>